<svg width="13" height="8" viewBox="0 0 13 8" fill="none" xmlns="http://www.w3.org/2000/svg">
<g clip-path="url(#clip0_2925_605)">
<path d="M6.04689 5.35959L10.5869 0.819593C10.7479 0.660207 10.9653 0.570801 11.1919 0.570801C11.4185 0.570801 11.6359 0.660207 11.7969 0.819593C11.9546 0.98353 12.0426 1.20214 12.0426 1.42959C12.0426 1.65704 11.9546 1.87566 11.7969 2.03959L6.65689 7.17959C6.49847 7.33235 6.28697 7.41771 6.06689 7.41771C5.84681 7.41771 5.63531 7.33235 5.47689 7.17959L0.29689 2.03959C0.216767 1.96052 0.153149 1.86632 0.109727 1.76247C0.0663052 1.65861 0.0439453 1.54716 0.0439453 1.43459C0.0439453 1.32202 0.0663052 1.21058 0.109727 1.10672C0.153149 1.00286 0.216767 0.908663 0.29689 0.829593C0.375961 0.74947 0.470158 0.685852 0.574016 0.64243C0.677873 0.599008 0.789321 0.576648 0.90189 0.576648C1.01446 0.576648 1.12591 0.599008 1.22976 0.64243C1.33362 0.685852 1.42782 0.74947 1.50689 0.829593L6.04689 5.35959Z" fill="black"/>
</g>
<defs>
<clipPath id="clip0_2925_605">
<rect width="12" height="6.86" fill="white" transform="translate(0.046875 0.569824)"/>
</clipPath>
</defs>
</svg>
